# xmcd CD database file
#
# Track frame offsets:
#	150
#	15645
#	29130
#	41020
#	53015
#	65002
#	76755
#	85700
#	96710
#	106970
#	117865
#	137187
#	150667
#	165155
#	178670
#	189132
#	199787
#	211845
#	221060
#	233052
#	242745
#
# Disc length: 3439 seconds
#
# Revision: 1
# Processed by: cddbd v1.5.2PL0 Copyright (c) Steve Scherf et al.
# Submitted via: CDex 1.51
#
DISCID=1a0d6d15
DTITLE=Peppermint Harris - Shreveport Downhome Blues
DYEAR=2001
DGENRE=Blues
TTITLE0=Raining In My Heart
TTITLE1=My Time After While
TTITLE2=Anytime Is The Right Time
TTITLE3=Bad Bad Woman
TTITLE4=Markin' Time
TTITLE5=Anything You Can Do
TTITLE6=Mama Mama
TTITLE7=Lonesome As I Can Be
TTITLE8=Bad Bad Whiskey
TTITLE9=Unlucky
TTITLE10=My Woman
TTITLE11=I'm Leaving
TTITLE12=Key To The Highway
TTITLE13=Nighty Night
TTITLE14=Tell Me I Can Come Home
TTITLE15=True Love
TTITLE16=True Confession
TTITLE17=Little Girl
TTITLE18=24 Hours
TTITLE19=Wait Until It Happens To You
TTITLE20=Raining In My Heart (Alt. Take)
EXTD=YEAR: 2001
EXTT0=
EXTT1=
EXTT2=
EXTT3=
EXTT4=
EXTT5=
EXTT6=
EXTT7=
EXTT8=
EXTT9=
EXTT10=
EXTT11=
EXTT12=
EXTT13=
EXTT14=
EXTT15=
EXTT16=
EXTT17=
EXTT18=
EXTT19=
EXTT20=
PLAYORDER=
